<?xml version="1.0" encoding="UTF-8"?>
<svg xmlns="http://www.w3.org/2000/svg" xmlns:xlink="http://www.w3.org/1999/xlink" width="16px" height="16px" viewBox="0 0 16 16" version="1.1">
<g id="surface1">
<path style=" stroke:none;fill-rule:nonzero;fill:rgb(70.980394%,73.333335%,80.784315%);fill-opacity:1;" d="M 7.988281 -0.0078125 C 8.019531 -0.0078125 8.050781 -0.0078125 8.085938 -0.0078125 C 8.542969 -0.0078125 8.988281 0 9.4375 0.09375 C 9.46875 0.101562 9.5 0.105469 9.53125 0.113281 C 10.738281 0.351562 11.867188 0.84375 12.84375 1.59375 C 12.867188 1.613281 12.894531 1.632812 12.921875 1.652344 C 13.453125 2.070312 13.964844 2.558594 14.367188 3.101562 C 14.40625 3.15625 14.449219 3.210938 14.492188 3.265625 C 14.734375 3.582031 14.9375 3.925781 15.125 4.28125 C 15.144531 4.320312 15.144531 4.320312 15.167969 4.359375 C 15.527344 5.042969 15.765625 5.804688 15.90625 6.5625 C 15.910156 6.585938 15.917969 6.613281 15.921875 6.636719 C 16.105469 7.578125 16.070312 8.660156 15.875 9.59375 C 15.867188 9.625 15.859375 9.660156 15.855469 9.691406 C 15.683594 10.480469 15.394531 11.21875 15.011719 11.929688 C 15 11.953125 14.984375 11.976562 14.972656 12.003906 C 14.722656 12.453125 14.722656 12.453125 14.5625 12.53125 C 14.53125 12.523438 14.53125 12.523438 14.5 12.519531 C 14.402344 12.503906 14.34375 12.5 14.25 12.53125 C 14.109375 12.652344 14.011719 12.816406 13.90625 12.96875 C 13.886719 12.988281 13.863281 13.011719 13.84375 13.03125 C 13.855469 13.089844 13.855469 13.089844 13.875 13.15625 C 13.890625 13.300781 13.894531 13.40625 13.816406 13.53125 C 13.722656 13.617188 13.675781 13.628906 13.550781 13.625 C 13.527344 13.625 13.503906 13.625 13.476562 13.625 C 13.441406 13.625 13.441406 13.625 13.40625 13.625 C 13.25 13.625 13.199219 13.6875 13.09375 13.792969 C 12.914062 13.964844 12.914062 13.964844 12.8125 14.03125 C 12.820312 14.0625 12.828125 14.09375 12.835938 14.125 C 12.84375 14.269531 12.835938 14.355469 12.75 14.46875 C 12.511719 14.683594 12.214844 14.84375 11.9375 15 C 11.902344 15.019531 11.902344 15.019531 11.871094 15.039062 C 11.050781 15.5 10.148438 15.796875 9.21875 15.9375 C 9.183594 15.941406 9.148438 15.949219 9.113281 15.953125 C 8.75 16.007812 8.390625 16.011719 8.023438 16.011719 C 7.992188 16.011719 7.960938 16.011719 7.929688 16.011719 C 7.414062 16.011719 6.910156 15.984375 6.40625 15.875 C 6.359375 15.867188 6.359375 15.867188 6.3125 15.855469 C 6.28125 15.847656 6.25 15.839844 6.21875 15.832031 C 6.191406 15.828125 6.164062 15.820312 6.136719 15.816406 C 6.035156 15.769531 5.996094 15.722656 5.9375 15.625 C 5.925781 15.515625 5.925781 15.515625 5.929688 15.398438 C 5.929688 15.355469 5.933594 15.316406 5.933594 15.277344 C 5.933594 15.246094 5.9375 15.21875 5.9375 15.1875 C 5.921875 15.1875 5.902344 15.1875 5.886719 15.1875 C 5.707031 15.191406 5.523438 15.195312 5.34375 15.195312 C 5.277344 15.195312 5.210938 15.199219 5.144531 15.199219 C 5.046875 15.203125 4.949219 15.203125 4.855469 15.203125 C 4.824219 15.203125 4.792969 15.203125 4.761719 15.207031 C 4.625 15.207031 4.550781 15.199219 4.433594 15.125 C 4.359375 15.007812 4.355469 14.910156 4.359375 14.777344 C 4.359375 14.742188 4.359375 14.742188 4.359375 14.703125 C 4.359375 14.628906 4.363281 14.550781 4.367188 14.476562 C 4.367188 14.421875 4.367188 14.371094 4.367188 14.320312 C 4.367188 14.191406 4.371094 14.066406 4.375 13.9375 C 4.359375 13.9375 4.339844 13.9375 4.324219 13.9375 C 4.144531 13.941406 3.960938 13.945312 3.78125 13.945312 C 3.714844 13.945312 3.648438 13.949219 3.582031 13.949219 C 3.484375 13.953125 3.386719 13.953125 3.292969 13.953125 C 3.261719 13.953125 3.230469 13.953125 3.199219 13.957031 C 3.0625 13.957031 2.988281 13.949219 2.871094 13.875 C 2.796875 13.757812 2.792969 13.660156 2.796875 13.527344 C 2.796875 13.503906 2.796875 13.480469 2.796875 13.453125 C 2.796875 13.378906 2.800781 13.300781 2.804688 13.226562 C 2.804688 13.171875 2.804688 13.121094 2.804688 13.070312 C 2.804688 12.941406 2.808594 12.816406 2.8125 12.6875 C 2.792969 12.6875 2.769531 12.6875 2.75 12.6875 C 2.527344 12.691406 2.308594 12.695312 2.085938 12.695312 C 2.003906 12.695312 1.921875 12.699219 1.839844 12.699219 C 1.722656 12.703125 1.601562 12.703125 1.484375 12.703125 C 1.429688 12.703125 1.429688 12.703125 1.375 12.707031 C 1.089844 12.707031 1.089844 12.707031 0.992188 12.613281 C 0.933594 12.523438 0.917969 12.480469 0.917969 12.375 C 0.917969 12.347656 0.917969 12.324219 0.917969 12.296875 C 0.949219 12.179688 0.996094 12.136719 1.09375 12.0625 C 1.203125 12.039062 1.308594 12.042969 1.417969 12.046875 C 1.449219 12.046875 1.480469 12.046875 1.511719 12.046875 C 1.609375 12.046875 1.707031 12.050781 1.804688 12.054688 C 1.875 12.054688 1.941406 12.054688 2.007812 12.054688 C 2.171875 12.054688 2.335938 12.058594 2.5 12.0625 C 2.5 11.855469 2.5 11.648438 2.5 11.4375 C 2.421875 11.4375 2.421875 11.4375 2.34375 11.441406 C 2.15625 11.441406 1.964844 11.445312 1.773438 11.445312 C 1.691406 11.445312 1.609375 11.449219 1.527344 11.449219 C 1.410156 11.453125 1.289062 11.453125 1.171875 11.453125 C 1.117188 11.453125 1.117188 11.453125 1.0625 11.457031 C 0.777344 11.457031 0.777344 11.457031 0.679688 11.363281 C 0.621094 11.273438 0.605469 11.230469 0.605469 11.125 C 0.605469 11.097656 0.605469 11.074219 0.605469 11.046875 C 0.636719 10.929688 0.6875 10.886719 0.78125 10.8125 C 0.871094 10.796875 0.945312 10.792969 1.035156 10.796875 C 1.058594 10.796875 1.082031 10.796875 1.109375 10.796875 C 1.183594 10.796875 1.261719 10.800781 1.335938 10.804688 C 1.390625 10.804688 1.441406 10.804688 1.492188 10.804688 C 1.621094 10.804688 1.746094 10.808594 1.875 10.8125 C 1.875 10.605469 1.875 10.398438 1.875 10.1875 C 1.773438 10.1875 1.675781 10.191406 1.574219 10.191406 C 1.476562 10.195312 1.378906 10.195312 1.28125 10.195312 C 1.214844 10.195312 1.148438 10.199219 1.082031 10.199219 C 0.984375 10.203125 0.886719 10.203125 0.792969 10.203125 C 0.761719 10.203125 0.730469 10.203125 0.699219 10.207031 C 0.554688 10.207031 0.492188 10.203125 0.371094 10.113281 C 0.308594 10.023438 0.292969 9.984375 0.292969 9.875 C 0.292969 9.847656 0.292969 9.824219 0.292969 9.796875 C 0.3125 9.71875 0.3125 9.71875 0.46875 9.5625 C 0.726562 9.5625 0.984375 9.5625 1.25 9.5625 C 1.25 8.839844 1.25 8.117188 1.25 7.375 C 0.890625 7.375 0.527344 7.375 0.15625 7.375 C 0 7.21875 0 7.21875 -0.0195312 7.140625 C -0.0195312 7.101562 -0.0195312 7.101562 -0.0195312 7.0625 C -0.0195312 7.035156 -0.0195312 7.011719 -0.0195312 6.984375 C 0.0117188 6.867188 0.0625 6.824219 0.15625 6.75 C 0.246094 6.734375 0.320312 6.730469 0.410156 6.734375 C 0.445312 6.734375 0.445312 6.734375 0.484375 6.734375 C 0.558594 6.734375 0.636719 6.738281 0.710938 6.742188 C 0.765625 6.742188 0.816406 6.742188 0.867188 6.742188 C 0.996094 6.742188 1.121094 6.746094 1.25 6.75 C 1.25 6.722656 1.25 6.722656 1.25 6.699219 C 1.246094 6.519531 1.242188 6.335938 1.242188 6.15625 C 1.242188 6.089844 1.238281 6.023438 1.238281 5.957031 C 1.234375 5.859375 1.234375 5.761719 1.234375 5.667969 C 1.234375 5.636719 1.234375 5.605469 1.230469 5.574219 C 1.230469 5.4375 1.238281 5.363281 1.3125 5.246094 C 1.429688 5.171875 1.527344 5.167969 1.660156 5.171875 C 1.695312 5.171875 1.695312 5.171875 1.734375 5.171875 C 1.808594 5.171875 1.886719 5.175781 1.960938 5.179688 C 2.015625 5.179688 2.066406 5.179688 2.117188 5.179688 C 2.246094 5.179688 2.371094 5.183594 2.5 5.1875 C 2.5 4.980469 2.5 4.773438 2.5 4.5625 C 2.382812 4.566406 2.382812 4.566406 2.265625 4.566406 C 2.191406 4.570312 2.117188 4.570312 2.042969 4.570312 C 1.988281 4.570312 1.9375 4.574219 1.886719 4.574219 C 1.808594 4.578125 1.734375 4.578125 1.660156 4.578125 C 1.636719 4.578125 1.613281 4.578125 1.589844 4.582031 C 1.464844 4.582031 1.414062 4.566406 1.3125 4.488281 C 1.246094 4.398438 1.230469 4.359375 1.230469 4.25 C 1.230469 4.222656 1.230469 4.199219 1.230469 4.171875 C 1.261719 4.058594 1.3125 4.011719 1.40625 3.9375 C 1.496094 3.925781 1.5625 3.921875 1.648438 3.929688 C 1.671875 3.929688 1.695312 3.929688 1.714844 3.929688 C 1.769531 3.933594 1.820312 3.933594 1.875 3.9375 C 1.875 3.90625 1.875 3.871094 1.871094 3.839844 C 1.871094 3.71875 1.867188 3.597656 1.867188 3.480469 C 1.867188 3.425781 1.863281 3.375 1.863281 3.324219 C 1.859375 3.246094 1.859375 3.171875 1.859375 3.097656 C 1.859375 3.074219 1.859375 3.050781 1.855469 3.027344 C 1.855469 2.910156 1.871094 2.847656 1.9375 2.75 C 2.054688 2.671875 2.148438 2.667969 2.285156 2.671875 C 2.308594 2.671875 2.332031 2.671875 2.359375 2.671875 C 2.433594 2.671875 2.511719 2.675781 2.585938 2.679688 C 2.640625 2.679688 2.691406 2.679688 2.742188 2.679688 C 2.871094 2.679688 2.996094 2.683594 3.125 2.6875 C 3.121094 2.644531 3.121094 2.644531 3.121094 2.597656 C 3.117188 2.484375 3.113281 2.371094 3.109375 2.261719 C 3.109375 2.210938 3.105469 2.164062 3.105469 2.117188 C 3.085938 1.71875 3.085938 1.71875 3.179688 1.574219 C 3.25 1.507812 3.324219 1.457031 3.40625 1.40625 C 3.441406 1.382812 3.441406 1.382812 3.472656 1.359375 C 3.542969 1.3125 3.609375 1.269531 3.679688 1.226562 C 3.71875 1.199219 3.71875 1.199219 3.757812 1.175781 C 4.574219 0.675781 5.445312 0.332031 6.382812 0.132812 C 6.410156 0.125 6.4375 0.121094 6.46875 0.113281 C 6.976562 0.0117188 7.472656 -0.0117188 7.988281 -0.0078125 Z M 7.988281 -0.0078125 "/>
<path style=" stroke:none;fill-rule:nonzero;fill:rgb(70.980394%,73.333335%,80.784315%);fill-opacity:1;" d="M 1.875 8.3125 C 6.320312 8.3125 10.765625 8.3125 15.34375 8.3125 C 15.34375 8.964844 15.34375 8.964844 15.289062 9.242188 C 15.285156 9.269531 15.277344 9.300781 15.273438 9.332031 C 15.101562 10.226562 14.777344 11.09375 14.285156 11.863281 C 14.1875 12.019531 14.125 12.125 14.15625 12.3125 C 14.1875 12.355469 14.21875 12.398438 14.25 12.4375 C 14.230469 12.574219 14.148438 12.664062 14.0625 12.769531 C 14.050781 12.789062 14.035156 12.804688 14.019531 12.824219 C 13.964844 12.898438 13.910156 12.964844 13.84375 13.03125 C 13.855469 13.089844 13.855469 13.089844 13.875 13.15625 C 13.890625 13.300781 13.894531 13.40625 13.816406 13.53125 C 13.722656 13.617188 13.675781 13.628906 13.550781 13.625 C 13.527344 13.625 13.503906 13.625 13.476562 13.625 C 13.441406 13.625 13.441406 13.625 13.40625 13.625 C 13.25 13.625 13.199219 13.6875 13.089844 13.792969 C 12.914062 13.964844 12.914062 13.964844 12.8125 14.03125 C 12.742188 14.019531 12.691406 14 12.625 13.96875 C 12.488281 13.949219 12.394531 13.9375 12.273438 14.011719 C 12.21875 14.054688 12.164062 14.097656 12.109375 14.140625 C 10.996094 14.988281 9.457031 15.382812 8.078125 15.382812 C 8.042969 15.382812 8.042969 15.382812 8.003906 15.382812 C 7.527344 15.382812 7.027344 15.375 6.5625 15.25 C 6.5625 15.214844 6.5625 15.179688 6.558594 15.144531 C 6.558594 15.097656 6.554688 15.054688 6.554688 15.007812 C 6.554688 14.984375 6.554688 14.960938 6.554688 14.9375 C 6.546875 14.828125 6.539062 14.761719 6.472656 14.671875 C 6.375 14.605469 6.296875 14.589844 6.179688 14.585938 C 6.15625 14.585938 6.128906 14.585938 6.101562 14.585938 C 6.074219 14.585938 6.046875 14.585938 6.015625 14.582031 C 5.988281 14.582031 5.957031 14.582031 5.929688 14.582031 C 5.835938 14.578125 5.742188 14.578125 5.648438 14.578125 C 5.585938 14.574219 5.523438 14.574219 5.460938 14.570312 C 5.308594 14.570312 5.152344 14.566406 5 14.5625 C 5 14.355469 5 14.148438 5 13.9375 C 5.140625 13.929688 5.140625 13.929688 5.277344 13.917969 C 5.394531 13.902344 5.496094 13.886719 5.570312 13.789062 C 5.601562 13.6875 5.605469 13.605469 5.59375 13.5 C 5.523438 13.410156 5.484375 13.378906 5.375 13.34375 C 5.3125 13.339844 5.25 13.339844 5.1875 13.335938 C 5.148438 13.335938 5.109375 13.335938 5.070312 13.335938 C 5.027344 13.335938 4.984375 13.335938 4.941406 13.332031 C 4.898438 13.332031 4.855469 13.332031 4.8125 13.332031 C 4.699219 13.332031 4.585938 13.328125 4.46875 13.328125 C 4.355469 13.324219 4.238281 13.324219 4.121094 13.320312 C 3.894531 13.320312 3.664062 13.316406 3.4375 13.3125 C 3.4375 13.265625 3.4375 13.265625 3.4375 13.21875 C 3.433594 13.101562 3.433594 12.984375 3.429688 12.867188 C 3.429688 12.816406 3.429688 12.765625 3.429688 12.714844 C 3.429688 12.640625 3.425781 12.566406 3.425781 12.496094 C 3.425781 12.472656 3.425781 12.449219 3.425781 12.425781 C 3.421875 12.324219 3.414062 12.261719 3.351562 12.175781 C 3.273438 12.113281 3.273438 12.113281 3.125 12.0625 C 3.125 11.855469 3.125 11.648438 3.125 11.4375 C 3.265625 11.429688 3.265625 11.429688 3.402344 11.417969 C 3.519531 11.402344 3.621094 11.386719 3.695312 11.289062 C 3.726562 11.1875 3.730469 11.105469 3.71875 11 C 3.648438 10.910156 3.609375 10.878906 3.5 10.84375 C 3.421875 10.839844 3.347656 10.835938 3.273438 10.832031 C 3.25 10.832031 3.226562 10.832031 3.207031 10.832031 C 3.136719 10.828125 3.066406 10.828125 2.992188 10.828125 C 2.945312 10.824219 2.898438 10.824219 2.851562 10.820312 C 2.734375 10.820312 2.617188 10.816406 2.5 10.8125 C 2.5 10.605469 2.5 10.398438 2.5 10.1875 C 2.640625 10.179688 2.640625 10.179688 2.777344 10.167969 C 2.894531 10.152344 2.996094 10.136719 3.070312 10.039062 C 3.101562 9.9375 3.105469 9.855469 3.09375 9.75 C 3.023438 9.660156 2.984375 9.628906 2.875 9.59375 C 2.796875 9.589844 2.722656 9.585938 2.648438 9.582031 C 2.605469 9.582031 2.566406 9.582031 2.523438 9.582031 C 2.449219 9.578125 2.449219 9.578125 2.367188 9.578125 C 2.207031 9.570312 2.042969 9.566406 1.875 9.5625 C 1.875 9.148438 1.875 8.738281 1.875 8.3125 Z M 1.875 8.3125 "/>
<path style=" stroke:none;fill-rule:nonzero;fill:rgb(0%,0%,0%);fill-opacity:1;" d="M 7.988281 -0.0078125 C 8.019531 -0.0078125 8.050781 -0.0078125 8.085938 -0.0078125 C 8.542969 -0.0078125 8.988281 0 9.4375 0.09375 C 9.46875 0.101562 9.5 0.105469 9.53125 0.113281 C 10.738281 0.351562 11.867188 0.84375 12.84375 1.59375 C 12.867188 1.613281 12.894531 1.632812 12.921875 1.652344 C 13.453125 2.070312 13.964844 2.558594 14.367188 3.101562 C 14.40625 3.15625 14.449219 3.210938 14.492188 3.265625 C 14.734375 3.582031 14.9375 3.925781 15.125 4.28125 C 15.144531 4.320312 15.144531 4.320312 15.167969 4.359375 C 15.527344 5.042969 15.765625 5.804688 15.90625 6.5625 C 15.910156 6.585938 15.917969 6.613281 15.921875 6.636719 C 16.105469 7.578125 16.070312 8.660156 15.875 9.59375 C 15.867188 9.625 15.859375 9.660156 15.855469 9.691406 C 15.683594 10.480469 15.394531 11.21875 15.011719 11.929688 C 15 11.953125 14.984375 11.976562 14.972656 12.003906 C 14.722656 12.453125 14.722656 12.453125 14.5625 12.53125 C 14.339844 12.554688 14.339844 12.554688 14.21875 12.457031 C 14.121094 12.328125 14.109375 12.257812 14.125 12.09375 C 14.167969 11.996094 14.222656 11.90625 14.28125 11.8125 C 14.3125 11.761719 14.34375 11.707031 14.375 11.65625 C 14.398438 11.617188 14.398438 11.617188 14.425781 11.574219 C 14.640625 11.207031 14.796875 10.820312 14.941406 10.417969 C 14.964844 10.355469 14.988281 10.289062 15.015625 10.222656 C 15.234375 9.605469 15.292969 8.96875 15.34375 8.3125 C 10.898438 8.3125 6.453125 8.3125 1.875 8.3125 C 1.875 8.726562 1.875 9.136719 1.875 9.5625 C 2.195312 9.558594 2.195312 9.558594 2.515625 9.554688 C 2.578125 9.554688 2.578125 9.554688 2.636719 9.554688 C 2.679688 9.554688 2.71875 9.550781 2.761719 9.550781 C 2.882812 9.5625 2.957031 9.589844 3.0625 9.65625 C 3.140625 9.773438 3.136719 9.832031 3.125 9.96875 C 3.082031 10.066406 3.058594 10.113281 2.960938 10.160156 C 2.863281 10.191406 2.78125 10.195312 2.679688 10.191406 C 2.617188 10.191406 2.558594 10.1875 2.5 10.1875 C 2.5 10.394531 2.5 10.601562 2.5 10.8125 C 2.570312 10.8125 2.640625 10.808594 2.710938 10.808594 C 2.78125 10.808594 2.847656 10.808594 2.917969 10.808594 C 2.964844 10.808594 3.011719 10.804688 3.058594 10.804688 C 3.125 10.804688 3.195312 10.804688 3.261719 10.804688 C 3.304688 10.804688 3.34375 10.800781 3.386719 10.800781 C 3.507812 10.8125 3.582031 10.839844 3.6875 10.90625 C 3.765625 11.023438 3.761719 11.082031 3.75 11.21875 C 3.707031 11.316406 3.683594 11.363281 3.585938 11.410156 C 3.488281 11.441406 3.40625 11.445312 3.304688 11.441406 C 3.242188 11.441406 3.183594 11.4375 3.125 11.4375 C 3.125 11.644531 3.125 11.851562 3.125 12.0625 C 3.195312 12.082031 3.269531 12.105469 3.34375 12.125 C 3.433594 12.199219 3.4375 12.246094 3.449219 12.363281 C 3.449219 12.40625 3.449219 12.449219 3.445312 12.496094 C 3.445312 12.519531 3.445312 12.542969 3.445312 12.566406 C 3.445312 12.640625 3.445312 12.714844 3.445312 12.789062 C 3.441406 12.839844 3.441406 12.890625 3.441406 12.941406 C 3.441406 13.066406 3.4375 13.1875 3.4375 13.3125 C 3.472656 13.3125 3.472656 13.3125 3.511719 13.3125 C 3.734375 13.308594 3.960938 13.308594 4.1875 13.308594 C 4.300781 13.308594 4.417969 13.304688 4.53125 13.304688 C 4.644531 13.304688 4.757812 13.304688 4.867188 13.304688 C 4.910156 13.304688 4.953125 13.304688 4.996094 13.300781 C 5.054688 13.300781 5.117188 13.300781 5.175781 13.300781 C 5.210938 13.300781 5.242188 13.300781 5.277344 13.300781 C 5.390625 13.316406 5.464844 13.347656 5.5625 13.40625 C 5.640625 13.523438 5.636719 13.582031 5.625 13.71875 C 5.582031 13.816406 5.558594 13.863281 5.460938 13.910156 C 5.363281 13.941406 5.28125 13.945312 5.179688 13.941406 C 5.117188 13.941406 5.058594 13.9375 5 13.9375 C 5 14.144531 5 14.351562 5 14.5625 C 5.140625 14.5625 5.140625 14.5625 5.28125 14.558594 C 5.371094 14.558594 5.460938 14.558594 5.550781 14.558594 C 5.613281 14.558594 5.675781 14.554688 5.738281 14.554688 C 5.828125 14.554688 5.917969 14.554688 6.007812 14.554688 C 6.046875 14.550781 6.046875 14.550781 6.089844 14.550781 C 6.25 14.550781 6.363281 14.566406 6.5 14.65625 C 6.578125 14.773438 6.570312 14.867188 6.566406 15.007812 C 6.566406 15.027344 6.566406 15.050781 6.566406 15.078125 C 6.566406 15.132812 6.5625 15.191406 6.5625 15.25 C 6.582031 15.25 6.597656 15.253906 6.617188 15.253906 C 6.703125 15.261719 6.789062 15.269531 6.875 15.28125 C 6.902344 15.28125 6.929688 15.285156 6.960938 15.289062 C 6.988281 15.289062 7.019531 15.292969 7.046875 15.296875 C 7.078125 15.296875 7.105469 15.300781 7.136719 15.304688 C 7.1875 15.308594 7.234375 15.316406 7.285156 15.320312 C 7.507812 15.351562 7.734375 15.347656 7.960938 15.347656 C 8.03125 15.347656 8.101562 15.351562 8.171875 15.351562 C 9.558594 15.355469 11.089844 14.910156 12.1875 14.042969 C 12.316406 13.945312 12.402344 13.90625 12.5625 13.921875 C 12.65625 13.945312 12.710938 13.964844 12.78125 14.03125 C 12.835938 14.152344 12.847656 14.226562 12.820312 14.359375 C 12.671875 14.652344 12.21875 14.839844 11.9375 15 C 11.902344 15.019531 11.902344 15.019531 11.871094 15.039062 C 11.050781 15.5 10.148438 15.796875 9.21875 15.9375 C 9.183594 15.941406 9.148438 15.949219 9.113281 15.953125 C 8.75 16.007812 8.390625 16.011719 8.023438 16.011719 C 7.992188 16.011719 7.960938 16.011719 7.929688 16.011719 C 7.414062 16.011719 6.910156 15.984375 6.40625 15.875 C 6.359375 15.867188 6.359375 15.867188 6.3125 15.855469 C 6.28125 15.847656 6.25 15.839844 6.21875 15.832031 C 6.191406 15.828125 6.164062 15.820312 6.136719 15.816406 C 6.035156 15.769531 5.996094 15.722656 5.9375 15.625 C 5.925781 15.515625 5.925781 15.515625 5.929688 15.398438 C 5.929688 15.355469 5.933594 15.316406 5.933594 15.277344 C 5.933594 15.246094 5.9375 15.21875 5.9375 15.1875 C 5.921875 15.1875 5.902344 15.1875 5.886719 15.1875 C 5.707031 15.191406 5.523438 15.195312 5.34375 15.195312 C 5.277344 15.195312 5.210938 15.199219 5.144531 15.199219 C 5.046875 15.203125 4.949219 15.203125 4.855469 15.203125 C 4.824219 15.203125 4.792969 15.203125 4.761719 15.207031 C 4.625 15.207031 4.550781 15.199219 4.433594 15.125 C 4.359375 15.007812 4.355469 14.910156 4.359375 14.777344 C 4.359375 14.742188 4.359375 14.742188 4.359375 14.703125 C 4.359375 14.628906 4.363281 14.550781 4.367188 14.476562 C 4.367188 14.421875 4.367188 14.371094 4.367188 14.320312 C 4.367188 14.191406 4.371094 14.066406 4.375 13.9375 C 4.359375 13.9375 4.339844 13.9375 4.324219 13.9375 C 4.144531 13.941406 3.960938 13.945312 3.78125 13.945312 C 3.714844 13.945312 3.648438 13.949219 3.582031 13.949219 C 3.484375 13.953125 3.386719 13.953125 3.292969 13.953125 C 3.261719 13.953125 3.230469 13.953125 3.199219 13.957031 C 3.0625 13.957031 2.988281 13.949219 2.871094 13.875 C 2.796875 13.757812 2.792969 13.660156 2.796875 13.527344 C 2.796875 13.503906 2.796875 13.480469 2.796875 13.453125 C 2.796875 13.378906 2.800781 13.300781 2.804688 13.226562 C 2.804688 13.171875 2.804688 13.121094 2.804688 13.070312 C 2.804688 12.941406 2.808594 12.816406 2.8125 12.6875 C 2.792969 12.6875 2.769531 12.6875 2.75 12.6875 C 2.527344 12.691406 2.308594 12.695312 2.085938 12.695312 C 2.003906 12.695312 1.921875 12.699219 1.839844 12.699219 C 1.722656 12.703125 1.601562 12.703125 1.484375 12.703125 C 1.429688 12.703125 1.429688 12.703125 1.375 12.707031 C 1.089844 12.707031 1.089844 12.707031 0.992188 12.613281 C 0.933594 12.523438 0.917969 12.480469 0.917969 12.375 C 0.917969 12.347656 0.917969 12.324219 0.917969 12.296875 C 0.949219 12.179688 0.996094 12.136719 1.09375 12.0625 C 1.203125 12.039062 1.308594 12.042969 1.417969 12.046875 C 1.449219 12.046875 1.480469 12.046875 1.511719 12.046875 C 1.609375 12.046875 1.707031 12.050781 1.804688 12.054688 C 1.875 12.054688 1.941406 12.054688 2.007812 12.054688 C 2.171875 12.054688 2.335938 12.058594 2.5 12.0625 C 2.5 11.855469 2.5 11.648438 2.5 11.4375 C 2.421875 11.4375 2.421875 11.4375 2.34375 11.441406 C 2.15625 11.441406 1.964844 11.445312 1.773438 11.445312 C 1.691406 11.445312 1.609375 11.449219 1.527344 11.449219 C 1.410156 11.453125 1.289062 11.453125 1.171875 11.453125 C 1.117188 11.453125 1.117188 11.453125 1.0625 11.457031 C 0.777344 11.457031 0.777344 11.457031 0.679688 11.363281 C 0.621094 11.273438 0.605469 11.230469 0.605469 11.125 C 0.605469 11.097656 0.605469 11.074219 0.605469 11.046875 C 0.636719 10.929688 0.6875 10.886719 0.78125 10.8125 C 0.871094 10.796875 0.945312 10.792969 1.035156 10.796875 C 1.058594 10.796875 1.082031 10.796875 1.109375 10.796875 C 1.183594 10.796875 1.261719 10.800781 1.335938 10.804688 C 1.390625 10.804688 1.441406 10.804688 1.492188 10.804688 C 1.621094 10.804688 1.746094 10.808594 1.875 10.8125 C 1.875 10.605469 1.875 10.398438 1.875 10.1875 C 1.773438 10.1875 1.675781 10.191406 1.574219 10.191406 C 1.476562 10.195312 1.378906 10.195312 1.28125 10.195312 C 1.214844 10.195312 1.148438 10.199219 1.082031 10.199219 C 0.984375 10.203125 0.886719 10.203125 0.792969 10.203125 C 0.761719 10.203125 0.730469 10.203125 0.699219 10.207031 C 0.554688 10.207031 0.492188 10.203125 0.371094 10.113281 C 0.308594 10.023438 0.292969 9.984375 0.292969 9.875 C 0.292969 9.847656 0.292969 9.824219 0.292969 9.796875 C 0.3125 9.71875 0.3125 9.71875 0.46875 9.5625 C 0.726562 9.5625 0.984375 9.5625 1.25 9.5625 C 1.25 8.839844 1.25 8.117188 1.25 7.375 C 0.890625 7.375 0.527344 7.375 0.15625 7.375 C 0 7.21875 0 7.21875 -0.0195312 7.140625 C -0.0195312 7.101562 -0.0195312 7.101562 -0.0195312 7.0625 C -0.0195312 7.035156 -0.0195312 7.011719 -0.0195312 6.984375 C 0.0117188 6.867188 0.0625 6.824219 0.15625 6.75 C 0.246094 6.734375 0.320312 6.730469 0.410156 6.734375 C 0.445312 6.734375 0.445312 6.734375 0.484375 6.734375 C 0.558594 6.734375 0.636719 6.738281 0.710938 6.742188 C 0.765625 6.742188 0.816406 6.742188 0.867188 6.742188 C 0.996094 6.742188 1.121094 6.746094 1.25 6.75 C 1.25 6.722656 1.25 6.722656 1.25 6.699219 C 1.246094 6.519531 1.242188 6.335938 1.242188 6.15625 C 1.242188 6.089844 1.238281 6.023438 1.238281 5.957031 C 1.234375 5.859375 1.234375 5.761719 1.234375 5.667969 C 1.234375 5.636719 1.234375 5.605469 1.230469 5.574219 C 1.230469 5.4375 1.238281 5.363281 1.3125 5.246094 C 1.429688 5.171875 1.527344 5.167969 1.660156 5.171875 C 1.695312 5.171875 1.695312 5.171875 1.734375 5.171875 C 1.808594 5.171875 1.886719 5.175781 1.960938 5.179688 C 2.015625 5.179688 2.066406 5.179688 2.117188 5.179688 C 2.246094 5.179688 2.371094 5.183594 2.5 5.1875 C 2.5 4.980469 2.5 4.773438 2.5 4.5625 C 2.382812 4.566406 2.382812 4.566406 2.265625 4.566406 C 2.191406 4.570312 2.117188 4.570312 2.042969 4.570312 C 1.988281 4.570312 1.9375 4.574219 1.886719 4.574219 C 1.808594 4.578125 1.734375 4.578125 1.660156 4.578125 C 1.636719 4.578125 1.613281 4.578125 1.589844 4.582031 C 1.464844 4.582031 1.414062 4.566406 1.3125 4.488281 C 1.246094 4.398438 1.230469 4.359375 1.230469 4.25 C 1.230469 4.222656 1.230469 4.199219 1.230469 4.171875 C 1.261719 4.058594 1.3125 4.011719 1.40625 3.9375 C 1.496094 3.925781 1.5625 3.921875 1.648438 3.929688 C 1.671875 3.929688 1.695312 3.929688 1.714844 3.929688 C 1.769531 3.933594 1.820312 3.933594 1.875 3.9375 C 1.875 3.90625 1.875 3.871094 1.871094 3.839844 C 1.871094 3.71875 1.867188 3.597656 1.867188 3.480469 C 1.867188 3.425781 1.863281 3.375 1.863281 3.324219 C 1.859375 3.246094 1.859375 3.171875 1.859375 3.097656 C 1.859375 3.074219 1.859375 3.050781 1.855469 3.027344 C 1.855469 2.910156 1.871094 2.847656 1.9375 2.75 C 2.054688 2.671875 2.148438 2.667969 2.285156 2.671875 C 2.308594 2.671875 2.332031 2.671875 2.359375 2.671875 C 2.433594 2.671875 2.511719 2.675781 2.585938 2.679688 C 2.640625 2.679688 2.691406 2.679688 2.742188 2.679688 C 2.871094 2.679688 2.996094 2.683594 3.125 2.6875 C 3.121094 2.644531 3.121094 2.644531 3.121094 2.597656 C 3.117188 2.484375 3.113281 2.371094 3.109375 2.261719 C 3.109375 2.210938 3.105469 2.164062 3.105469 2.117188 C 3.085938 1.71875 3.085938 1.71875 3.179688 1.574219 C 3.25 1.507812 3.324219 1.457031 3.40625 1.40625 C 3.441406 1.382812 3.441406 1.382812 3.472656 1.359375 C 3.542969 1.3125 3.609375 1.269531 3.679688 1.226562 C 3.71875 1.199219 3.71875 1.199219 3.757812 1.175781 C 4.574219 0.675781 5.445312 0.332031 6.382812 0.132812 C 6.410156 0.125 6.4375 0.121094 6.46875 0.113281 C 6.976562 0.0117188 7.472656 -0.0117188 7.988281 -0.0078125 Z M 7.578125 0.625 C 6.917969 0.632812 6.25 0.785156 5.625 1 C 5.59375 1.011719 5.59375 1.011719 5.5625 1.023438 C 5 1.210938 4.453125 1.476562 3.960938 1.808594 C 3.90625 1.84375 3.90625 1.84375 3.8125 1.894531 C 3.707031 2.023438 3.734375 2.175781 3.742188 2.335938 C 3.742188 2.386719 3.742188 2.386719 3.742188 2.4375 C 3.746094 2.519531 3.746094 2.605469 3.75 2.6875 C 3.78125 2.6875 3.808594 2.6875 3.839844 2.6875 C 3.949219 2.691406 4.058594 2.695312 4.167969 2.699219 C 4.214844 2.699219 4.261719 2.699219 4.3125 2.699219 C 4.378906 2.703125 4.449219 2.703125 4.515625 2.707031 C 4.558594 2.707031 4.597656 2.707031 4.640625 2.707031 C 4.746094 2.71875 4.816406 2.730469 4.90625 2.78125 C 4.984375 2.898438 4.976562 2.957031 4.96875 3.09375 C 4.945312 3.164062 4.945312 3.164062 4.90625 3.21875 C 4.777344 3.285156 4.667969 3.289062 4.527344 3.292969 C 4.503906 3.292969 4.480469 3.292969 4.460938 3.292969 C 4.386719 3.292969 4.316406 3.292969 4.242188 3.292969 C 4.191406 3.292969 4.140625 3.296875 4.09375 3.296875 C 3.960938 3.296875 3.828125 3.300781 3.695312 3.300781 C 3.5625 3.300781 3.425781 3.304688 3.292969 3.304688 C 3.027344 3.308594 2.765625 3.308594 2.5 3.3125 C 2.5 3.519531 2.5 3.726562 2.5 3.9375 C 2.570312 3.9375 2.640625 3.941406 2.714844 3.941406 C 2.78125 3.945312 2.851562 3.945312 2.917969 3.949219 C 2.964844 3.949219 3.011719 3.949219 3.0625 3.949219 C 3.128906 3.953125 3.199219 3.953125 3.265625 3.957031 C 3.308594 3.957031 3.347656 3.957031 3.390625 3.957031 C 3.496094 3.96875 3.566406 3.980469 3.65625 4.03125 C 3.734375 4.148438 3.726562 4.207031 3.71875 4.34375 C 3.695312 4.414062 3.695312 4.414062 3.65625 4.46875 C 3.484375 4.550781 3.3125 4.550781 3.125 4.5625 C 3.125 4.769531 3.125 4.976562 3.125 5.1875 C 3.195312 5.1875 3.265625 5.191406 3.339844 5.191406 C 3.40625 5.195312 3.476562 5.195312 3.542969 5.199219 C 3.589844 5.199219 3.636719 5.199219 3.6875 5.199219 C 3.753906 5.203125 3.824219 5.203125 3.890625 5.207031 C 3.933594 5.207031 3.972656 5.207031 4.015625 5.207031 C 4.121094 5.21875 4.191406 5.230469 4.28125 5.28125 C 4.359375 5.398438 4.351562 5.457031 4.34375 5.59375 C 4.320312 5.664062 4.320312 5.664062 4.28125 5.71875 C 4.152344 5.785156 4.042969 5.789062 3.902344 5.792969 C 3.867188 5.792969 3.867188 5.792969 3.835938 5.792969 C 3.761719 5.792969 3.691406 5.792969 3.617188 5.792969 C 3.566406 5.792969 3.515625 5.796875 3.46875 5.796875 C 3.335938 5.796875 3.203125 5.800781 3.070312 5.800781 C 2.914062 5.800781 2.753906 5.804688 2.597656 5.804688 C 2.355469 5.808594 2.117188 5.808594 1.875 5.8125 C 1.875 6.429688 1.875 7.050781 1.875 7.6875 C 6.320312 7.6875 10.765625 7.6875 15.34375 7.6875 C 15.34375 5.738281 14.433594 4.023438 13.09375 2.648438 C 12.34375 1.914062 11.414062 1.398438 10.4375 1.03125 C 10.414062 1.023438 10.390625 1.011719 10.363281 1.003906 C 10 0.871094 9.632812 0.785156 9.25 0.71875 C 9.214844 0.710938 9.175781 0.707031 9.140625 0.699219 C 8.621094 0.605469 8.105469 0.621094 7.578125 0.625 Z M 7.578125 0.625 "/>
<path style=" stroke:none;fill-rule:nonzero;fill:rgb(96.862745%,96.862745%,96.862745%);fill-opacity:1;" d="M 11.34375 2.21875 C 11.398438 2.257812 11.449219 2.300781 11.5 2.34375 C 11.523438 2.363281 11.546875 2.382812 11.574219 2.402344 C 12.023438 2.773438 12.296875 3.316406 12.4375 3.875 C 12.445312 3.898438 12.449219 3.921875 12.457031 3.945312 C 12.5625 4.640625 12.40625 5.363281 12 5.9375 C 11.960938 5.992188 11.917969 6.042969 11.875 6.09375 C 11.847656 6.128906 11.847656 6.128906 11.816406 6.167969 C 11.488281 6.566406 10.972656 6.878906 10.46875 7 C 10.441406 7.007812 10.417969 7.011719 10.390625 7.019531 C 9.652344 7.171875 8.980469 7.023438 8.347656 6.632812 C 8.269531 6.578125 8.199219 6.527344 8.125 6.46875 C 8.089844 6.441406 8.089844 6.441406 8.054688 6.414062 C 7.5625 6.003906 7.253906 5.378906 7.15625 4.75 C 7.09375 3.984375 7.273438 3.324219 7.75 2.71875 C 7.769531 2.695312 7.785156 2.671875 7.804688 2.648438 C 8.179688 2.199219 8.71875 1.921875 9.28125 1.78125 C 9.304688 1.773438 9.328125 1.769531 9.351562 1.761719 C 10.046875 1.65625 10.769531 1.8125 11.34375 2.21875 Z M 11.34375 2.21875 "/>
<path style=" stroke:none;fill-rule:nonzero;fill:rgb(0.784314%,1.176471%,1.176471%);fill-opacity:1;" d="M 11.34375 2.21875 C 11.398438 2.257812 11.449219 2.300781 11.5 2.34375 C 11.523438 2.363281 11.546875 2.382812 11.574219 2.402344 C 12.023438 2.773438 12.296875 3.316406 12.4375 3.875 C 12.445312 3.898438 12.449219 3.921875 12.457031 3.945312 C 12.5625 4.640625 12.40625 5.363281 12 5.9375 C 11.960938 5.992188 11.917969 6.042969 11.875 6.09375 C 11.847656 6.128906 11.847656 6.128906 11.816406 6.167969 C 11.488281 6.566406 10.972656 6.878906 10.46875 7 C 10.441406 7.007812 10.417969 7.011719 10.390625 7.019531 C 9.652344 7.171875 8.980469 7.023438 8.347656 6.632812 C 8.269531 6.578125 8.199219 6.527344 8.125 6.46875 C 8.089844 6.441406 8.089844 6.441406 8.054688 6.414062 C 7.5625 6.003906 7.253906 5.378906 7.15625 4.75 C 7.09375 3.984375 7.273438 3.324219 7.75 2.71875 C 7.769531 2.695312 7.785156 2.671875 7.804688 2.648438 C 8.179688 2.199219 8.71875 1.921875 9.28125 1.78125 C 9.304688 1.773438 9.328125 1.769531 9.351562 1.761719 C 10.046875 1.65625 10.769531 1.8125 11.34375 2.21875 Z M 8.34375 3 C 8.324219 3.019531 8.304688 3.035156 8.285156 3.054688 C 7.921875 3.425781 7.765625 3.957031 7.769531 4.460938 C 7.785156 5.015625 8.011719 5.484375 8.40625 5.875 C 8.425781 5.894531 8.441406 5.914062 8.460938 5.933594 C 8.835938 6.300781 9.375 6.453125 9.882812 6.453125 C 10.429688 6.4375 10.898438 6.195312 11.28125 5.8125 C 11.300781 5.792969 11.320312 5.773438 11.339844 5.753906 C 11.703125 5.375 11.863281 4.828125 11.859375 4.3125 C 11.839844 3.773438 11.597656 3.3125 11.21875 2.9375 C 11.199219 2.917969 11.183594 2.898438 11.164062 2.878906 C 10.785156 2.507812 10.25 2.359375 9.734375 2.363281 C 9.1875 2.378906 8.726562 2.613281 8.34375 3 Z M 8.34375 3 "/>
<path style=" stroke:none;fill-rule:nonzero;fill:rgb(1.176471%,1.176471%,1.176471%);fill-opacity:1;" d="M 10.355469 3.445312 C 10.617188 3.609375 10.800781 3.824219 10.894531 4.121094 C 10.957031 4.449219 10.902344 4.742188 10.726562 5.023438 C 10.566406 5.246094 10.355469 5.417969 10.082031 5.488281 C 9.730469 5.542969 9.441406 5.492188 9.148438 5.289062 C 8.929688 5.113281 8.765625 4.871094 8.71875 4.59375 C 8.691406 4.238281 8.753906 3.960938 8.976562 3.679688 C 9.34375 3.289062 9.878906 3.183594 10.355469 3.445312 Z M 10.355469 3.445312 "/>
<path style=" stroke:none;fill-rule:nonzero;fill:rgb(0.392157%,0.392157%,0.392157%);fill-opacity:1;" d="M 6.597656 11.746094 C 6.636719 11.746094 6.675781 11.746094 6.71875 11.742188 C 6.765625 11.742188 6.808594 11.742188 6.855469 11.742188 C 6.898438 11.742188 6.945312 11.742188 6.992188 11.742188 C 7.085938 11.742188 7.183594 11.742188 7.28125 11.742188 C 7.402344 11.742188 7.523438 11.742188 7.648438 11.742188 C 7.742188 11.738281 7.835938 11.738281 7.933594 11.738281 C 7.976562 11.738281 8.023438 11.738281 8.066406 11.738281 C 8.132812 11.738281 8.195312 11.738281 8.257812 11.738281 C 8.292969 11.738281 8.332031 11.738281 8.367188 11.738281 C 8.484375 11.75 8.558594 11.78125 8.65625 11.84375 C 8.734375 11.960938 8.730469 12.019531 8.71875 12.15625 C 8.675781 12.253906 8.652344 12.300781 8.554688 12.347656 C 8.453125 12.378906 8.371094 12.382812 8.265625 12.382812 C 8.203125 12.386719 8.203125 12.386719 8.140625 12.386719 C 8.097656 12.386719 8.050781 12.386719 8.007812 12.386719 C 7.960938 12.386719 7.917969 12.386719 7.871094 12.386719 C 7.773438 12.386719 7.679688 12.386719 7.585938 12.386719 C 7.460938 12.386719 7.339844 12.390625 7.21875 12.390625 C 7.125 12.390625 7.03125 12.390625 6.933594 12.390625 C 6.890625 12.390625 6.84375 12.394531 6.800781 12.394531 C 6.738281 12.394531 6.675781 12.394531 6.609375 12.394531 C 6.558594 12.394531 6.558594 12.394531 6.503906 12.394531 C 6.375 12.367188 6.332031 12.316406 6.25 12.21875 C 6.199219 12.121094 6.207031 12.046875 6.21875 11.9375 C 6.292969 11.847656 6.292969 11.847656 6.375 11.78125 C 6.433594 11.722656 6.519531 11.746094 6.597656 11.746094 Z M 6.597656 11.746094 "/>
<path style=" stroke:none;fill-rule:nonzero;fill:rgb(0.392157%,0.392157%,0.784314%);fill-opacity:1;" d="M 9.351562 12.996094 C 9.378906 12.996094 9.40625 12.996094 9.4375 12.992188 C 9.46875 12.992188 9.496094 12.992188 9.53125 12.992188 C 9.5625 12.992188 9.59375 12.992188 9.625 12.992188 C 9.691406 12.992188 9.757812 12.992188 9.824219 12.992188 C 9.925781 12.992188 10.027344 12.992188 10.128906 12.988281 C 10.195312 12.988281 10.261719 12.988281 10.324219 12.988281 C 10.371094 12.988281 10.371094 12.988281 10.417969 12.988281 C 10.582031 12.988281 10.703125 12.996094 10.84375 13.09375 C 10.921875 13.210938 10.917969 13.269531 10.90625 13.40625 C 10.867188 13.5 10.839844 13.546875 10.75 13.597656 C 10.613281 13.636719 10.476562 13.636719 10.332031 13.636719 C 10.300781 13.636719 10.269531 13.636719 10.238281 13.636719 C 10.171875 13.636719 10.105469 13.636719 10.039062 13.636719 C 9.9375 13.636719 9.835938 13.640625 9.734375 13.640625 C 9.671875 13.640625 9.605469 13.640625 9.542969 13.640625 C 9.511719 13.644531 9.484375 13.644531 9.453125 13.644531 C 9.304688 13.644531 9.242188 13.640625 9.121094 13.550781 C 9.027344 13.421875 9.015625 13.347656 9.03125 13.1875 C 9.105469 13.097656 9.105469 13.097656 9.1875 13.03125 C 9.234375 12.984375 9.285156 12.996094 9.351562 12.996094 Z M 9.351562 12.996094 "/>
<path style=" stroke:none;fill-rule:nonzero;fill:rgb(0.392157%,0.392157%,0.784314%);fill-opacity:1;" d="M 4.351562 9.246094 C 4.378906 9.246094 4.40625 9.246094 4.4375 9.242188 C 4.46875 9.242188 4.496094 9.242188 4.53125 9.242188 C 4.5625 9.242188 4.59375 9.242188 4.625 9.242188 C 4.691406 9.242188 4.757812 9.242188 4.824219 9.242188 C 4.925781 9.242188 5.027344 9.242188 5.128906 9.238281 C 5.195312 9.238281 5.261719 9.238281 5.324219 9.238281 C 5.371094 9.238281 5.371094 9.238281 5.417969 9.238281 C 5.582031 9.238281 5.703125 9.246094 5.84375 9.34375 C 5.921875 9.460938 5.917969 9.519531 5.90625 9.65625 C 5.867188 9.75 5.839844 9.796875 5.75 9.847656 C 5.613281 9.886719 5.476562 9.886719 5.332031 9.886719 C 5.300781 9.886719 5.269531 9.886719 5.238281 9.886719 C 5.171875 9.886719 5.105469 9.886719 5.039062 9.886719 C 4.9375 9.886719 4.835938 9.890625 4.734375 9.890625 C 4.671875 9.890625 4.605469 9.890625 4.542969 9.890625 C 4.511719 9.894531 4.484375 9.894531 4.453125 9.894531 C 4.304688 9.894531 4.242188 9.890625 4.121094 9.800781 C 4.027344 9.671875 4.015625 9.597656 4.03125 9.4375 C 4.105469 9.347656 4.105469 9.347656 4.1875 9.28125 C 4.234375 9.234375 4.285156 9.246094 4.351562 9.246094 Z M 4.351562 9.246094 "/>
<path style=" stroke:none;fill-rule:nonzero;fill:rgb(69.803923%,72.156864%,79.607844%);fill-opacity:1;" d="M 10.039062 3.984375 C 10.171875 4.0625 10.222656 4.136719 10.28125 4.28125 C 10.304688 4.4375 10.273438 4.554688 10.199219 4.695312 C 10.097656 4.828125 9.957031 4.867188 9.796875 4.890625 C 9.664062 4.871094 9.566406 4.835938 9.46875 4.75 C 9.363281 4.605469 9.316406 4.460938 9.34375 4.28125 C 9.398438 4.128906 9.484375 4.03125 9.628906 3.957031 C 9.777344 3.90625 9.898438 3.925781 10.039062 3.984375 Z M 10.039062 3.984375 "/>
<path style=" stroke:none;fill-rule:nonzero;fill:rgb(1.176471%,1.568628%,1.568628%);fill-opacity:1;" d="M 6.960938 12.992188 C 6.980469 12.992188 7.003906 12.992188 7.027344 12.992188 C 7.175781 12.988281 7.277344 13.011719 7.40625 13.09375 C 7.484375 13.210938 7.480469 13.269531 7.46875 13.40625 C 7.429688 13.503906 7.402344 13.546875 7.308594 13.597656 C 7.195312 13.632812 7.085938 13.636719 6.96875 13.640625 C 6.945312 13.640625 6.925781 13.640625 6.902344 13.640625 C 6.777344 13.644531 6.726562 13.628906 6.625 13.550781 C 6.527344 13.421875 6.515625 13.351562 6.53125 13.1875 C 6.609375 13.097656 6.609375 13.097656 6.6875 13.03125 C 6.75 12.96875 6.871094 12.992188 6.960938 12.992188 Z M 6.960938 12.992188 "/>
<path style=" stroke:none;fill-rule:nonzero;fill:rgb(1.176471%,1.568628%,1.568628%);fill-opacity:1;" d="M 4.773438 10.492188 C 4.792969 10.492188 4.816406 10.492188 4.839844 10.492188 C 4.988281 10.488281 5.089844 10.511719 5.21875 10.59375 C 5.296875 10.710938 5.292969 10.769531 5.28125 10.90625 C 5.242188 11.003906 5.214844 11.046875 5.121094 11.097656 C 5.007812 11.132812 4.898438 11.136719 4.78125 11.140625 C 4.757812 11.140625 4.738281 11.140625 4.714844 11.140625 C 4.589844 11.144531 4.539062 11.128906 4.4375 11.050781 C 4.339844 10.921875 4.328125 10.851562 4.34375 10.6875 C 4.421875 10.597656 4.421875 10.597656 4.5 10.53125 C 4.5625 10.46875 4.683594 10.492188 4.773438 10.492188 Z M 4.773438 10.492188 "/>
<path style=" stroke:none;fill-rule:nonzero;fill:rgb(0.784314%,0.784314%,1.176471%);fill-opacity:1;" d="M 13.742188 13.023438 C 13.8125 13.0625 13.8125 13.0625 13.875 13.15625 C 13.898438 13.300781 13.894531 13.40625 13.816406 13.53125 C 13.707031 13.636719 13.621094 13.636719 13.476562 13.636719 C 13.40625 13.625 13.40625 13.625 13.328125 13.550781 C 13.253906 13.417969 13.238281 13.34375 13.25 13.1875 C 13.378906 12.988281 13.515625 12.960938 13.742188 13.023438 Z M 13.742188 13.023438 "/>
</g>
</svg>
